<svg xmlns="http://www.w3.org/2000/svg" width="64" height="64" viewBox="0 0 80 80" fill="none">
  <defs>
    <linearGradient id="b" x1="0" y1="0" x2="1" y2="1">
      <stop offset="0%" stop-color="#e2b044"/>
      <stop offset="100%" stop-color="#c17f59"/>
    </linearGradient>
    <linearGradient id="h" x1="0" y1="0" x2="0" y2="1">
      <stop offset="0%" stop-color="#fff"/>
      <stop offset="100%" stop-color="#f5efe5"/>
    </linearGradient>
  </defs>
  <rect width="80" height="80" rx="20" fill="url(#b)"/>
  <g transform="translate(26,32) rotate(-12)"><path d="M0,-4 C-12,-16 -22,-4 -22,8 C-22,20 -4,30 0,36 C4,30 22,20 22,8 C22,-4 12,-16 0,-4Z" fill="url(#h)"/></g>
  <g transform="translate(52,36) rotate(8) scale(0.85)"><path d="M0,-4 C-12,-16 -22,-4 -22,8 C-22,20 -4,30 0,36 C4,30 22,20 22,8 C22,-4 12,-16 0,-4Z" fill="url(#h)"/></g>
</svg>
