<svg xmlns="http://www.w3.org/2000/svg" width="1952" height="1890" viewBox="0 0 1952 1890"><path fill="#c4874c" fill-rule="evenodd" stroke="#c4874c" stroke-linejoin="round" stroke-width=".8" d="M1156.22 602.56 c-1.22 .86 -2.22 2.36 -2.22 3.35 0 2.35 3.69 5.43 5.62 4.69 1.04 -.4 2.54 .15 3.89 1.41 1.95 1.83 2.34 1.89 3.47 .53 .7 -.84 2.06 -1.53 3.03 -1.53 .97 0 2.31 .67 2.98 1.48 1 1.21 1.57 1.3 3.1 .48 2.68 -1.43 6.52 -.12 7.79 2.67 1.32 2.9 1.19 4.62 -.3 4.04 -.78 -.3 -1.87 -.01 -2.41 .64 -.54 .65 -1.3 3.35 -1.69 5.98 -.54 3.6 -.34 5.21 .77 6.5 .82 .94 1.78 2.94 2.13 4.44 .39 1.62 1.85 3.35 3.62 4.27 1.63 .84 3.61 2.77 4.38 4.27 .78 1.5 2.29 3.53 3.35 4.49 1.9 1.72 1.98 1.71 3.73 -.22 1.64 -1.81 1.65 -3.39 .04 -7.29 -.51 -1.24 -.25 -1.75 .89 -1.75 .93 0 1.61 .83 1.61 1.95 0 1.07 .79 2.4 1.75 2.94 1.48 .84 1.55 1.31 .5 3.04 -.69 1.12 -1.25 3.17 -1.25 4.56 0 2.13 -1.54 3.07 -2.5 1.51 -.34 -.55 -1.44 -1 -2.44 -1 -1 0 -2.39 .68 -3.08 1.52 -1.03 1.24 -.94 1.87 .51 3.47 1.62 1.79 1.66 2.22 .44 5.17 -.73 1.77 -1.23 4.53 -1.11 6.14 .17 2.27 -.12 2.8 -1.3 2.34 -1.93 -.74 -8.31 4.86 -8.71 7.64 -.35 2.47 -3.81 3.69 -3.81 1.34 0 -.84 -.77 -1.95 -1.7 -2.48 -1.38 -.77 -2.91 .35 -7.99 5.84 -3.72 4.01 -7.88 7.43 -10.18 8.35 -2.14 .86 -5.3 3.26 -7.01 5.34 -1.72 2.08 -3.12 4.31 -3.12 4.95 0 .64 1.55 2.53 3.44 4.19 3.16 2.78 3.35 3.26 2.35 5.93 -1.47 3.89 -.14 8.11 3.8 12.05 1.91 1.91 3.35 3.53 3.19 3.59 -.16 .06 -1.71 .91 -3.44 1.87 -1.74 .96 -3.79 1.51 -4.56 1.21 -2.37 -.91 -4.49 2.9 -5.3 9.53 -1.09 8.93 -.79 12.71 1.37 17.17 1.21 2.51 3.1 5.37 4.18 6.35 1.09 .98 1.97 2.2 1.97 2.71 0 .57 -1.09 .69 -2.81 .31 -2.02 -.44 -3.24 -.11 -4.34 1.17 -1.4 1.64 -3.71 7.94 -4.19 11.44 -.4 2.89 -.04 4.09 1.73 5.75 1.23 1.16 2.77 2.1 3.42 2.1 .65 0 1.18 .34 1.17 .75 -.01 .41 -.49 1.42 -1.08 2.25 -.88 1.24 -1.15 1.29 -1.56 .26 -.28 -.68 -1.37 -2.26 -2.42 -3.5 l-1.92 -2.26 -2.59 2.9 c-2.08 2.33 -2.46 3.55 -1.97 6.17 .39 2.1 .24 3.5 -.42 3.91 -.57 .35 -1.03 1.07 -1.03 1.6 0 .53 1.74 2.87 3.88 5.19 3.2 3.49 3.79 4.77 3.4 7.36 -.26 1.72 .02 3.44 .62 3.81 1.17 .72 1.29 5.56 .14 5.56 -2.1 0 -6.51 -2.99 -7.64 -5.19 -.8 -1.54 -2.56 -3.53 -3.93 -4.42 -2.15 -1.41 -2.69 -1.45 -4.05 -.33 -.91 .76 -1.34 2.15 -1.03 3.33 .29 1.12 -.12 2.76 -.93 3.64 -1.3 1.43 -1.01 2.21 2.53 6.96 2.19 2.94 5.41 8.98 7.15 13.43 l3.16 8.08 -.18 88.5 c-.17 87.66 -.16 88.52 1.86 91 l2.04 2.5 2.08 -2.5 c1.14 -1.38 45.13 -45.74 97.74 -98.6 52.61 -52.85 103.34 -104.15 112.73 -114 9.39 -9.85 19.07 -20.61 21.5 -23.92 2.43 -3.31 6.11 -9.39 8.18 -13.5 7.18 -14.29 7.98 -19.73 8.49 -57.76 .3 -22.28 .06 -37.67 -.68 -43.95 -1.48 -12.52 -7.15 -29.66 -12.44 -37.58 -2.22 -3.33 -6.71 -8.91 -9.98 -12.4 -11.9 -12.73 -27.39 -20.93 -44.82 -23.76 -14.18 -2.3 -168.31 -2.27 -171.6 .04z m72.78 49.25 c0 3.66 -.13 3.81 -3.5 3.9 -1.92 .05 -3.5 -.11 -3.5 -.36 0 -.57 5.77 -7.35 6.25 -7.35 .41 -0 .75 1.71 .75 3.8z m3.35 14.79 c1.73 2.38 1.75 2.64 .26 4.28 -.87 .96 -1.87 3.18 -2.22 4.93 -.82 4.1 -5.44 3.8 -5.06 -.33 .12 -1.35 -.85 -2.46 -3.05 -3.49 -1.78 -.83 -3.24 -2.01 -3.25 -2.64 -.03 -1.54 3.17 -2.44 4.56 -1.29 1.01 .84 1.88 .5 3.62 -1.38 1.26 -1.36 2.52 -2.51 2.8 -2.55 .28 -.04 1.33 1.07 2.35 2.46z m-19.85 12.9 c0 1.01 -.56 2.02 -1.25 2.25 -.79 .26 -1.25 -.56 -1.25 -2.25 0 -1.69 .46 -2.51 1.25 -2.25 .69 .23 1.25 1.24 1.25 2.25z m4.5 -.5 c0 1.1 -.42 2 -.94 2 -1.04 0 -2.13 -2.08 -1.56 -3 .34 -.55 1.04 -1 1.56 -1 .52 0 .94 .9 .94 2z m-15.55 7.67 c.48 1.91 .08 3.47 -1.39 5.46 -1.13 1.53 -2.06 3.91 -2.06 5.29 0 2.5 -3.41 9.53 -4.63 9.56 -2.23 .05 -3.48 -3.11 -2.86 -7.22 .51 -3.42 .29 -4.67 -1.01 -5.75 -2.02 -1.68 -4.88 -.1 -5.33 2.95 -.23 1.59 -.85 2.11 -2.11 1.78 -.98 -.26 -2.54 -.04 -3.47 .48 -1.17 .66 -2.4 .49 -4 -.56 -2.1 -1.37 -2.45 -1.36 -3.92 .11 -.89 .89 -1.92 1.31 -2.3 .94 -.37 -.37 1.42 -2.63 3.99 -5.02 5.5 -5.12 14.32 -8.01 15.89 -5.21 .47 .84 1.42 1.53 2.11 1.53 .69 0 2.78 -1.58 4.65 -3.5 1.87 -1.92 3.93 -3.5 4.59 -3.5 .66 0 1.5 1.2 1.87 2.67z m10.8 2.95 c1.59 .56 2.46 5.38 .97 5.38 -.43 0 -1.78 -.7 -3 -1.56 -2.28 -1.6 -3.14 -6.04 -.97 -5.03 .69 .32 2.04 .86 3 1.2z m4.65 11.77 c1.01 1.22 .95 1.46 -.46 2 -.88 .34 -1.8 .62 -2.03 .62 -.23 0 -.42 -.9 -.42 -2 0 -1.1 .39 -2 .88 -2 .48 0 1.39 .62 2.03 1.38z m10.6 2.09 c0 1.53 -3.12 4.24 -3.94 3.42 -.69 -.69 2.04 -5.84 2.94 -5.55 .55 .18 1 1.14 1 2.13z m-61.2 14.28 c.29 1.51 .33 2.95 .09 3.19 -.24 .24 -1.12 -.24 -1.95 -1.07 -1.32 -1.32 -.92 -4.87 .55 -4.87 .43 0 1.01 1.24 1.3 2.75z m.7 11.75 c0 2.3 -2.4 3.28 -3.54 1.43 -.48 -.77 2.03 -3.74 3.29 -3.9 .14 -.02 .25 1.09 .25 2.47z m-5.23 12.98 c.15 .13 -.02 .99 -.38 1.92 -.9 2.34 -3.84 1.46 -4.23 -1.26 -.29 -2.03 -.03 -2.24 2 -1.62 1.28 .39 2.45 .82 2.61 .95z M1072.57 602.89 c-1.09 1.77 2.56 3.25 7.13 2.91 2.64 -.2 5.37 -.72 6.07 -1.15 .7 -.43 1.08 -1.29 .76 -1.81 -.68 -1.11 -13.28 -1.06 -13.96 .05z M925.16 951.53 c-2.12 2.44 -4.01 2.71 -10.16 1.47 -3.96 -.8 -4.71 -.66 -6.25 1.15 -.96 1.13 -1.75 3.07 -1.75 4.3 0 2.23 3.63 5.97 5.84 6.01 1.3 .02 7.16 4.2 7.16 5.1 0 .43 -.62 1.49 -1.38 2.36 -.76 .87 -2.14 4.28 -3.07 7.58 -.93 3.3 -2.55 6.67 -3.61 7.5 -1.71 1.34 -1.77 1.78 -.55 4.12 1.38 2.65 10.01 25.2 12.98 33.93 4.29 12.58 12.91 34.6 14.04 35.85 1.33 1.47 -1.61 1.61 -35.09 1.63 l-36.54 .03 -2.39 2.78 c-1.31 1.53 -2.39 3.86 -2.39 5.18 0 2.02 -4.55 7.48 -6.24 7.48 -.42 0 -.76 -.65 -.76 -1.44 0 -1.38 -4.16 -4.57 -5.16 -3.96 -.46 .28 -1.81 -.16 -2.99 -.99 -2.59 -1.82 -6.74 -.39 -5 1.71 1.5 1.81 .17 6.54 -2.03 7.24 -1.46 .46 -2.96 -.47 -5.9 -3.65 l-3.94 -4.27 -2.92 2.79 c-1.6 1.54 -3.45 4.09 -4.11 5.68 -.66 1.59 -1.67 2.88 -2.26 2.88 -.59 0 -2.1 -.98 -3.37 -2.17 -1.27 -1.19 -2.48 -1.98 -2.68 -1.75 -2.08 2.38 -27.64 65.65 -27.64 68.41 0 .86 1.01 1.93 2.25 2.39 2.65 .98 29.18 2.18 30.35 1.37 .96 -.66 6.42 -14.77 14.01 -36.2 3.59 -10.14 7.19 -19.71 7.99 -21.25 l1.45 -2.81 51.75 0 c43.94 0 52.07 .22 53.85 1.47 1.22 .85 3.88 6 6.33 12.25 9.46 24.13 18.31 45.34 19.14 45.85 .89 .55 35.98 .66 36.52 .12 .35 -.35 .2 -1.22 -.35 -1.92 -.55 -.7 -2.44 -4.87 -4.22 -9.27 -1.77 -4.4 -5.2 -12.72 -7.62 -18.5 -2.42 -5.78 -7.81 -19.28 -12 -30 -5.11 -13.11 -16.73 -41.54 -19.41 -47.5 -.99 -2.2 -2.93 -7.15 -4.32 -11 -2.21 -6.14 -29.27 -73.79 -31.26 -78.16 -1.29 -2.84 -2.76 -5.41 -3.26 -5.72 -.5 -.31 -1.87 .55 -3.05 1.91z M1042.18 1006.08 l-2.32 .91 .32 65.98 .32 65.98 2.18 2.18 c1.95 1.95 2.5 2.05 5.19 .93 1.66 -.69 3.42 -.99 3.93 -.68 1.53 .95 5.19 -3.78 4.18 -5.39 -.52 -.82 -.95 -2.8 -.95 -4.41 -.01 -1.61 -.74 -3.73 -1.64 -4.71 -2.08 -2.29 -1.04 -4.87 1.97 -4.87 1.32 0 2.96 -.66 3.62 -1.46 1.57 -1.89 -2.2 -7.54 -5.04 -7.54 -1.06 0 -1.93 -.3 -1.93 -.66 0 -.36 1.12 -2.13 2.5 -3.93 1.38 -1.8 2.5 -4.06 2.5 -5.02 0 -.96 -.7 -2.51 -1.55 -3.45 -1.41 -1.56 -1.31 -2.06 1.06 -5.56 1.43 -2.11 4.04 -5.06 5.8 -6.54 2.61 -2.2 3 -3.02 2.12 -4.46 -1.71 -2.82 -4.37 -3.91 -6.42 -2.64 -1.09 .68 -2.17 1.24 -2.38 1.24 -.21 0 .33 -2.01 1.22 -4.47 l1.61 -4.47 4.02 .63 c2.21 .34 4.15 .94 4.3 1.33 1.11 2.73 3.11 4.16 5 3.56 2.12 -.67 2.14 -.92 2.42 -35.87 .16 -19.36 .06 -35.47 -.21 -35.82 -.76 -.94 -29.6 -1.67 -31.82 -.8z M708.14 1168.35 c-1.97 2.09 -2.04 2.49 -.66 3.64 1.36 1.13 1.23 1.45 -1.13 2.68 -2.48 1.29 -2.89 1.19 -5.42 -1.23 -2.48 -2.38 -2.82 -2.46 -3.69 -.9 -.99 1.77 1.33 7.36 3.38 8.15 .77 .3 2.09 -.04 2.94 -.74 1.36 -1.13 1.73 -1.08 3.24 .45 1.59 1.62 1.6 1.8 .02 2.91 -.92 .65 -3.08 1.97 -4.8 2.92 -2.79 1.55 -3.06 2.08 -2.5 5.06 .45 2.41 .18 3.7 -.97 4.66 -.97 .81 -1.36 2.08 -.99 3.25 .72 2.26 -4.15 9.74 -6.45 9.91 -.89 .07 -3.73 .23 -6.31 .37 l-4.7 .25 -.3 -4.02 c-.39 -5.18 -2.8 -6.94 -5.79 -4.23 -2.08 1.88 -2.17 1.88 -6.81 -.54 -2.58 -1.35 -4.87 -2.84 -5.07 -3.33 -.71 -1.65 -4.39 -4.58 -5.16 -4.11 -.53 .33 -1.4 1.42 -1.94 2.43 -.74 1.38 -.48 2.48 1.06 4.43 2.69 3.42 1.56 4.97 -3.18 4.33 -5.87 -.79 -7.1 1.46 -3.07 5.62 1.74 1.79 3.16 3.58 3.16 3.97 0 .39 -.88 .16 -1.97 -.52 -1.69 -1.05 -2.37 -.84 -4.8 1.49 -1.56 1.5 -3.31 2.72 -3.88 2.72 -.57 0 -1.79 .83 -2.71 1.85 -1.62 1.79 -1.61 1.92 .42 4.5 1.98 2.52 5.85 3.35 7.58 1.62 .98 -.98 8.26 -.26 10.33 1.02 .98 .61 .99 1.23 .06 2.98 -.97 1.82 -.87 2.55 .55 4.12 1.06 1.17 2.16 1.58 2.83 1.05 1.28 -1.01 6.6 -1.86 6.6 -1.06 0 2.27 -2.27 5.93 -3.68 5.93 -.95 0 -3.22 -1.45 -5.06 -3.23 -2.82 -2.73 -3.59 -3.04 -5.05 -1.99 -3.09 2.21 -4.41 2.36 -6.26 .69 -1.89 -1.71 -2.04 -1.71 -3.96 .03 -1.1 1 -2.01 2.3 -2.03 2.9 -.02 .6 -.71 1.99 -1.54 3.09 -1.29 1.71 -1.64 1.78 -2.45 .5 -.52 -.82 -.96 -2.85 -.98 -4.5 -.02 -1.65 -.92 -4.12 -1.99 -5.5 -1.08 -1.38 -1.97 -3.49 -1.98 -4.69 -.01 -1.2 1.78 -4.27 3.98 -6.81 2.2 -2.54 4 -4.95 4 -5.36 0 -.64 -2.47 -3.14 -3.11 -3.14 -.39 0 -2.66 1.64 -5.05 3.64 -2.39 2 -6.21 4.44 -8.48 5.42 -2.28 .98 -4.46 2.3 -4.85 2.94 -.39 .64 .23 2.16 1.39 3.4 1.16 1.23 2.1 2.72 2.1 3.3 0 .58 .68 1.63 1.51 2.32 1.39 1.15 1.37 1.35 -.21 2.51 -1.6 1.17 -1.53 1.54 .99 5.17 1.49 2.15 2.71 4.23 2.71 4.63 0 .39 -2.36 .72 -5.25 .73 -6.82 .02 -23.09 .96 -23.5 1.37 -.32 .32 -1.36 .59 -2.3 .59 -.94 0 -2.27 .67 -2.96 1.5 -1.81 2.18 .47 4.67 3.56 3.9 1.91 -.48 2.3 -.21 2.17 1.51 -.09 1.19 -.85 2.09 -1.76 2.09 -.88 0 -2.84 1.29 -4.35 2.87 -1.93 2.02 -4.12 3.06 -7.34 3.5 -2.52 .35 -5.25 1.18 -6.07 1.86 -1.22 1.01 -1.76 .83 -2.97 -1 -.82 -1.23 -2.15 -2.24 -2.96 -2.24 -.81 0 -2.81 -.95 -4.44 -2.11 l-2.97 -2.11 -2.44 2.29 c-1.34 1.26 -2.44 3.33 -2.44 4.61 0 3.68 -2.58 2.38 -5.3 -2.67 -2.85 -5.27 -3.24 -9.79 -1.11 -12.83 1.34 -1.91 1.4 -2.5 .38 -3.72 -.67 -.8 -1.65 -1.46 -2.19 -1.46 -.54 0 -2.51 1.53 -4.38 3.4 -3.83 3.83 -4.26 7.53 -1.47 12.6 2.35 4.26 3.49 6.24 3.78 7.36 .29 1.11 -.27 1.36 -1.3 2.15 -1.83 1.4 -1.66 1.71 3.74 6.73 3.11 2.89 5.92 6.45 6.24 7.9 .32 1.45 1.93 4.08 3.59 5.86 2.98 3.18 4.05 7.62 1.62 6.69 -1.83 -.7 -8.61 5.63 -8.61 8.05 0 2.39 -3.53 5.52 -5.68 5.04 -2.58 -.58 -8.84 3.04 -11.89 6.88 -1.69 2.12 -3.37 4.68 -3.75 5.68 -1.11 2.97 -4.18 1.63 -4.21 -1.84 -.02 -2.54 -.76 -3.38 -5 -5.69 -8.84 -4.81 -11.71 -5.85 -13.05 -4.73 -.92 .76 -2.4 .77 -5.11 .01 -6.87 -1.91 -9 -1.27 -12.74 3.83 -1.98 2.69 -4.33 5.18 -5.23 5.52 -.9 .34 -1.86 .41 -2.13 .13 -.27 -.27 .3 -1.71 1.28 -3.19 1.68 -2.57 1.68 -2.76 .04 -3.96 -1.59 -1.16 -1.03 -3.4 .84 -3.4 .69 0 2.49 -1.29 4.01 -2.88 5.27 -5.5 1.76 -15.42 -3.65 -10.34 -1.3 1.22 -2.62 2.22 -2.93 2.22 -.31 0 -.8 -.9 -1.09 -1.99 -.56 -2.16 -3.63 -3.58 -5.2 -2.41 -.67 .5 -3.42 2.59 -6.11 4.63 -2.69 2.05 -5.36 3.74 -5.92 3.75 -.6 .01 -.87 -1.65 -.64 -3.98 .21 -2.2 .14 -4.64 -.16 -5.42 -.33 -.87 -1.35 -1.21 -2.61 -.88 -2.04 .53 -2.06 1 -2.05 38.17 .01 39.79 .76 49.73 3.95 51.96 1.42 .99 1.76 2.12 1.38 4.52 -.53 3.24 2.87 11.75 8.45 21.16 1.96 3.3 5.97 8.78 8.92 12.19 2.95 3.4 8.16 8.29 11.57 10.86 3.42 2.57 8.75 5.95 11.85 7.52 3.1 1.57 9.18 3.87 13.51 5.13 l7.87 2.28 84.5 .3 c56.42 .2 85.9 -.04 88.71 -.74 3.08 -.77 6.11 -.72 11.32 .17 6.95 1.19 7.22 1.16 11.94 -1.5 4.29 -2.41 5.87 -2.72 14.1 -2.72 7.07 0 9.69 -.38 11.03 -1.59 1.6 -1.45 2.42 -1.45 9.44 0 4.22 .87 11.04 1.59 15.14 1.59 4.1 0 8.33 .46 9.38 1.03 1.43 .76 2.75 .6 5.12 -.62 2.38 -1.23 4.73 -1.51 9.21 -1.11 4.16 .38 6.85 .11 8.75 -.87 1.51 -.78 3.42 -2.39 4.26 -3.58 1.31 -1.87 1.74 -1.98 3.15 -.81 1.03 .86 4.35 1.39 8.96 1.43 5.67 .05 7.79 .49 9.38 1.93 2.96 2.68 12.9 1.26 18.32 -2.61 1.41 -1.01 2.11 -.83 4.06 1 1.3 1.22 2.76 2.22 3.24 2.22 .48 0 2.1 -1.17 3.58 -2.59 2.26 -2.17 3.04 -2.41 4.78 -1.48 1.94 1.04 5.7 .63 10.33 -1.12 2.23 -.84 3.18 -.65 5.4 1.1 2.52 1.98 2.85 2.02 5.14 .52 2.3 -1.51 2.58 -1.47 4.84 .65 l2.39 2.25 2.06 -1.86 c1.83 -1.65 2.55 -1.73 6.52 -.66 5.45 1.46 14.07 1.24 19.42 -.49 3.84 -1.24 5.65 -1.4 6.86 -.62 1.23 .79 2.35 .66 4.36 -.51 2.51 -1.46 2.84 -1.45 4.58 .12 1.03 .93 2.55 1.69 3.39 1.69 .83 0 2.33 -.9 3.33 -2 1 -1.1 2.19 -2 2.65 -2 .46 0 .85 .62 .85 1.38 0 .76 .68 1.94 1.52 2.64 1.24 1.03 1.88 .93 3.5 -.53 1.87 -1.7 2.08 -1.7 3.81 -.14 2.28 2.06 7.09 1.87 11.93 -.47 3.73 -1.8 4.79 -1.94 7.05 -.92 2.42 1.1 2.9 .94 5.4 -1.86 2.88 -3.22 2.63 -5.38 -1.1 -9.42 -2.54 -2.76 -2.56 -2.86 -.66 -4.25 1.07 -.78 2.49 -1.43 3.16 -1.43 .67 0 2.36 -1.35 3.74 -3 1.39 -1.65 3.14 -3 3.89 -3 .75 0 1.87 -.51 2.5 -1.13 1.78 -1.78 4.16 0 5.21 3.92 .58 2.14 1.88 4.64 2.89 5.56 1.79 1.62 1.9 1.61 3.66 -.34 1 -1.1 2.5 -2.01 3.33 -2.01 .83 0 2.33 .74 3.33 1.64 1.54 1.39 2.02 1.46 3.23 .46 .78 -.65 2.49 -.91 3.8 -.59 3.56 .89 7.29 -3.41 6.48 -7.47 -.33 -1.67 -.39 -3.04 -.12 -3.04 .27 0 1.36 .54 2.42 1.21 1.59 .99 2.29 .88 3.99 -.65 1.96 -1.77 2.14 -1.78 3.88 -.21 1.96 1.77 6.23 1.91 8.09 .26 .87 -.77 3.39 -1.69 5.6 -2.05 3.68 -.6 4.22 -.39 6.28 2.39 1.24 1.68 2.86 3.05 3.6 3.05 .74 0 3.01 -2.03 5.04 -4.5 2.17 -2.65 4.52 -4.5 5.72 -4.5 1.12 0 3.62 -1.59 5.57 -3.53 3.23 -3.23 3.68 -3.4 5.24 -1.99 1.6 1.45 1.81 1.43 3.37 -.29 3.89 -4.29 -.68 -12.18 -7.06 -12.18 -3.43 0 -3.79 -.48 -4.77 -6.36 -.35 -2.12 -1.73 -4.94 -3.05 -6.27 -1.97 -1.97 -2.23 -2.85 -1.46 -4.89 .52 -1.37 1.38 -2.48 1.9 -2.48 .87 0 2.24 3.95 1.68 4.86 -.74 1.2 3.24 4.43 4.62 3.76 3.44 -1.66 10.24 -7.63 10.03 -8.81 -.14 -.8 .86 -2.5 2.21 -3.78 1.96 -1.85 2.26 -2.7 1.45 -4.22 -.56 -1.05 -.92 -2.67 -.8 -3.61 .12 -.94 -.14 -2.98 -.57 -4.53 -.54 -1.94 -.43 -3.18 .34 -3.95 .84 -.84 1.13 -.59 1.13 .95 0 1.14 .69 2.65 1.54 3.35 1.28 1.07 2 .83 4.39 -1.46 2.53 -2.42 3.09 -2.58 4.96 -1.41 1.16 .73 2.11 1.82 2.11 2.42 0 .61 .83 1.85 1.84 2.77 1.75 1.59 1.92 1.58 3.5 -.17 1.8 -1.98 1.86 -6.33 .13 -8.62 -.81 -1.07 -1.47 -2.72 -1.47 -3.66 0 -.95 -1.42 -2.91 -3.15 -4.37 -2.91 -2.44 -3.02 -2.78 -1.53 -4.27 1.5 -1.5 1.76 -1.5 3.44 .02 1.09 .98 2.69 1.42 3.98 1.08 1.86 -.49 2.14 -.18 1.96 2.15 -.12 1.58 .42 3.02 1.3 3.45 .83 .4 2.51 1.26 3.74 1.89 1.23 .64 3.13 1.16 4.22 1.16 1.66 0 1.89 .48 1.41 2.91 -.46 2.31 -.13 3.15 1.59 4.07 2.45 1.31 4.65 -.25 5.35 -3.79 .3 -1.52 2.17 -4.48 4.15 -6.58 3.12 -3.3 3.51 -4.26 2.96 -7.17 -.48 -2.56 -.13 -4 1.47 -6.04 1.16 -1.47 2.1 -3.35 2.1 -4.17 0 -.82 -.96 -3.04 -2.12 -4.93 -1.62 -2.62 -1.99 -4.42 -1.57 -7.55 .42 -3.14 .1 -4.7 -1.38 -6.57 -1.06 -1.35 -1.93 -2.84 -1.93 -3.32 0 -.48 .7 -.87 1.56 -.87 .86 0 3.62 -1.57 6.14 -3.5 4.89 -3.74 9.21 -4.45 11.72 -1.93 .86 .86 1.57 2.04 1.57 2.62 0 .58 -1.35 2.58 -3 4.46 -3.66 4.17 -4.13 10.01 -1.04 12.81 2.08 1.88 3.18 1.54 9.04 -2.79 5.36 -3.96 5.92 -6.62 2.89 -13.85 -1.22 -2.93 -3.16 -6.38 -4.31 -7.68 -1.15 -1.3 -3.03 -2.72 -4.2 -3.17 -1.87 -.72 -2.05 -1.41 -1.62 -5.94 .42 -4.37 .15 -5.49 -1.81 -7.58 -2.97 -3.16 -5.76 -2.97 -7.75 .54 -1.36 2.39 -4.2 3.73 -4.2 1.98 0 -.56 1.58 -3.31 3.5 -6.11 1.92 -2.8 3.5 -5.87 3.5 -6.82 0 -.95 .9 -2.55 2 -3.54 1.1 -1 2 -2.35 2 -3 0 -.65 -.79 -1.88 -1.75 -2.73 -.96 -.85 -3.21 -1.85 -5 -2.23 -1.79 -.38 -3.25 -1.28 -3.25 -2 0 -.72 -.71 -1.59 -1.58 -1.92 -.87 -.33 -83.33 -.61 -183.25 -.62 -99.73 -.01 -146.88 .07 -170.54 -.66 -23.66 -.73 -23.84 -2.26 -29.63 -5.49 -3.02 -1.69 -7.92 -4.92 -10.89 -7.18 -6.33 -4.83 -16.41 -18.16 -19.03 -25.17 -1.12 -2.98 -2.49 -8.25 -3.05 -11.71 -.56 -3.46 -1.02 -9.32 -1.03 -13.04 -.01 -5.12 -.35 -6.75 -1.41 -6.75 -.77 0 -2.98 -1.58 -4.9 -3.5 -1.92 -1.92 -4.14 -3.5 -4.93 -3.5 -.78 0 -2.42 1.06 -3.63 2.35z m-5.14 43.15 c0 .83 -.67 1.5 -1.5 1.5 -.83 0 -1.5 -.38 -1.5 -.83 0 -.46 .3 -1.13 .67 -1.5 .37 -.37 1.04 -.67 1.5 -.67 .46 0 .83 .67 .83 1.5z m-22 2.94 c0 .79 -.48 1.74 -1.07 2.1 -.59 .36 -1.27 .45 -1.52 .2 -.46 -.46 1.03 -3.74 1.7 -3.74 .49 0 .89 .65 .89 1.44z m-11 5.51 c0 3.48 -2.41 7.05 -4.77 7.05 -1.83 0 -2.29 -.4 -1.83 -1.6 .56 -1.45 5.21 -7.3 5.85 -7.34 .41 -.03 .75 .82 .75 1.9z m-15.01 21.53 c1.86 1.92 3.09 3.77 2.74 4.12 -.35 .35 -2.23 .34 -4.18 -.03 -3.25 -.61 -3.55 -.95 -3.55 -4.12 0 -1.9 .36 -3.45 .8 -3.45 .44 0 2.32 1.57 4.18 3.49z m-14.99 4.51 c0 .55 -.67 1 -1.5 1 -.83 0 -1.5 -.45 -1.5 -1 0 -.55 .67 -1 1.5 -1 .83 0 1.5 .45 1.5 1z m-4.67 15.61 c4.95 4.6 4.33 6.39 -2.22 6.39 -5.49 0 -11.11 3.6 -11.11 7.11 0 1.1 -1.1 2.43 -2.54 3.09 -2.16 .98 -2.85 .86 -4.54 -.84 -2.46 -2.46 -1.59 -5.36 1.61 -5.36 2.12 0 11.06 -6.3 10.79 -7.61 -.1 -.49 -.48 -1.67 -.85 -2.63 -.49 -1.26 -.02 -2.01 1.68 -2.69 1.29 -.52 2.58 -.96 2.85 -.98 .27 -.02 2.22 1.56 4.33 3.52z m-11.33 -1.68 c0 .51 -1.21 1.88 -2.7 3.05 -2.63 2.07 -7.39 2.32 -8.01 .42 -.32 -.98 6.28 -4.15 8.96 -4.3 .96 -.05 1.75 .32 1.75 .83z m-51.28 10.04 c-.28 1.08 .13 2.49 .91 3.14 1.27 1.05 7.4 10.2 7.06 10.54 -1.03 1.03 -4.36 -2.03 -6.22 -5.7 -1.34 -2.64 -2.89 -5.09 -3.45 -5.43 -1.49 -.92 -1.01 -4.51 .6 -4.51 1.11 0 1.46 .61 1.1 1.96z m30.28 -.46 c0 .83 -.89 1.5 -2 1.5 -1.11 0 -2 -.67 -2 -1.5 0 -.83 .89 -1.5 2 -1.5 1.11 0 2 .67 2 1.5z m532.97 5.46 c.81 .51 1.12 1.29 .68 1.72 -.71 .71 -6.65 1.06 -6.65 .4 0 -.72 2.65 -3.08 3.45 -3.07 .58 .01 1.71 .43 2.52 .95z m3.83 8.24 c1.79 1.79 1.1 3.8 -1.3 3.8 -1.38 0 -2.5 -.41 -2.5 -.92 0 -1.07 1.41 -4.08 1.91 -4.08 .38 0 1.23 .54 1.89 1.2z m-652.99 27.74 c.25 .75 -.12 1.12 -.88 .88 -.72 -.24 -1.51 -1.03 -1.75 -1.75 -.25 -.75 .12 -1.12 .88 -.88 .72 .24 1.51 1.03 1.75 1.75z m-3.82 14.57 c-1.29 1.37 -2.98 2.5 -3.75 2.5 -.77 0 -1.23 -.54 -1.01 -1.21 .29 -.86 6.23 -4.55 6.68 -4.15 .23 .2 -.63 1.49 -1.92 2.87z m623.42 .14 c.35 .9 .42 1.85 .17 2.1 -.25 .25 -.94 .16 -1.52 -.2 -.59 -.36 -1.07 -1.31 -1.07 -2.1 0 -.79 .4 -1.44 .89 -1.44 .49 0 1.18 .74 1.52 1.64z m-90.42 81.85 c1.29 1.37 2.11 2.73 1.82 3.02 -.29 .29 -1.1 -.16 -1.79 -1 -.7 -.84 -1.88 -1.52 -2.64 -1.52 -.76 0 -1.38 -.67 -1.38 -1.5 0 -.83 .37 -1.5 .83 -1.5 .45 0 1.88 1.12 3.17 2.5z M610.02 1177.96 c-.7 1.31 -.5 2.2 .76 3.34 .94 .85 2.96 1.86 4.47 2.23 1.51 .38 2.75 .89 2.75 1.14 0 .25 -.45 1.3 -1 2.32 -.8 1.5 -.47 2.28 1.68 3.97 2.68 2.11 2.68 2.11 4.67 .13 1.65 -1.65 1.77 -2.24 .69 -3.54 -.71 -.85 -2.19 -1.55 -3.28 -1.55 -1.42 0 -1.85 -.5 -1.5 -1.75 .27 -.96 .66 -2.35 .87 -3.09 .36 -1.3 -1.45 -2.51 -5.89 -3.94 -2.77 -.89 -3.4 -.78 -4.22 .74z" data-index="0" style="visibility: visible; fill: rgb(229, 177, 112);"></path><path fill="#e5b170" fill-rule="evenodd" stroke="#e5b170" stroke-linejoin="round" stroke-width=".8" d="M644 602.14 c-16.24 .72 -29.4 3.68 -41.09 9.25 -15.96 7.6 -28.09 18.53 -88.45 79.7 -15.42 15.63 -29.66 30.44 -31.65 32.91 -1.98 2.47 -5.89 8.78 -8.67 14.01 -7.46 14 -9.14 22.23 -9.42 46.18 l-.23 19.31 310.91 .24 c171 .13 311.14 .47 311.42 .75 .28 .28 2.14 .51 4.13 .51 1.99 0 6.27 .69 9.5 1.53 3.23 .84 8.52 2.94 11.75 4.66 3.23 1.72 7.91 4.92 10.39 7.1 4.06 3.58 4.76 3.86 7.03 2.82 2.14 -.98 2.42 -1.6 1.86 -4.13 -.65 -2.96 .35 -3.62 2.63 -1.74 .83 .69 2.3 2.53 3.27 4.08 1.58 2.54 9.4 6.91 10.81 6.04 1.04 -.64 .78 -7.27 -.32 -7.94 -.65 -.4 -.88 -2.09 -.56 -4.08 .48 -2.97 .06 -3.88 -3.39 -7.29 -2.17 -2.15 -3.94 -4.36 -3.94 -4.92 0 -.56 .46 -1.31 1.03 -1.66 .66 -.41 .82 -1.79 .44 -3.81 -.72 -3.88 1.84 -8.15 3.44 -5.73 .53 .81 .7 3.56 .38 6.25 -.37 3.1 -.19 4.8 .5 4.8 .74 0 9.21 -14.1 9.21 -15.32 0 -.32 -1.36 -.1 -3.02 .48 -4.38 1.53 -5.93 -.09 -5.22 -5.45 .31 -2.32 1.12 -5.56 1.81 -7.21 1.13 -2.7 1.71 -3 5.78 -3.03 2.49 -.02 4.89 -.39 5.33 -.83 .44 -.44 -.66 -2 -2.45 -3.47 -1.79 -1.47 -3.25 -3.18 -3.24 -3.81 0 -.62 1.15 -1.88 2.54 -2.79 1.39 -.91 2.23 -2.14 1.87 -2.73 -.36 -.59 -.24 -1.36 .27 -1.71 .5 -.35 5.12 -11.5 5.61 -13.55 .22 -.93 -6.36 -2.49 -7.94 -1.88 -1.65 .63 -1.54 4.88 .16 6.3 .83 .68 1.5 1.86 1.5 2.62 0 .76 -.42 1.38 -.94 1.38 -.52 0 -1.22 -.45 -1.56 -1 -.34 -.55 -1.08 -1 -1.65 -1 -.71 0 -.84 1.18 -.43 3.75 .71 4.47 -.64 7.43 -2.53 5.54 -1.22 -1.22 -1.32 -8.27 -.23 -16.29 .76 -5.58 1.16 -6.48 2.83 -6.32 1.07 .1 3.21 -.57 4.74 -1.47 4.2 -2.48 7.65 -.02 10.26 7.3 1.94 5.45 1.95 5.68 .24 6.95 -1.76 1.3 -1.76 1.31 .25 1.84 2.66 .69 2.78 4.72 .15 4.72 -1.03 0 -2.43 .67 -3.11 1.49 -1.08 1.31 -1.04 1.56 .32 2.08 .85 .33 2.35 .44 3.32 .26 1.75 -.34 3.12 -4.12 3.25 -8.97 .06 -2.24 .68 -3.86 1.6 -4.22 .83 -.32 1.5 -1.01 1.5 -1.54 0 -.53 -.83 -1.23 -1.85 -1.55 -2.68 -.85 -4.53 -5.85 -4.81 -13.05 -.43 -10.73 -1.26 -18.54 -1.99 -18.75 -.64 -.19 -7.34 9.28 -7.34 10.37 0 .49 .84 .89 1.88 .89 1.03 0 2.43 .67 3.11 1.49 1.39 1.67 .44 4.51 -1.5 4.51 -.87 0 -2.66 -1.09 -3.99 -2.41 -1.33 -1.33 -2.71 -3.58 -3.06 -5 -.99 -3.95 .46 -7.32 4.06 -9.45 3.23 -1.91 4.93 -6.14 2.47 -6.14 -.57 0 -2.39 1 -4.04 2.22 -2.98 2.21 -5.26 1.76 -7.26 -1.4 -1.44 -2.29 2.68 -7.43 7.76 -9.67 2.37 -1.05 6.85 -4.48 9.95 -7.63 3.1 -3.15 5.64 -6.13 5.64 -6.62 0 -.49 .45 -.89 1 -.89 3.4 0 -1.92 12.43 -6.47 15.12 -1.94 1.14 -3.53 2.85 -3.53 3.78 0 .94 .53 2.24 1.19 2.89 1 1 1.47 .93 3 -.46 1.58 -1.43 2.14 -1.5 4.37 -.48 1.85 .84 3.09 .88 4.5 .12 1.54 -.82 1.94 -.78 1.94 .19 0 .68 -1.1 2.83 -2.44 4.79 -2.36 3.43 -3.56 9.17 -2.04 9.71 1.06 .38 9.48 -16.2 9.48 -18.67 0 -1.15 .67 -1.99 1.59 -1.99 1.34 0 1.48 .8 .91 4.97 -.61 4.47 -.43 5.2 1.82 7.29 1.38 1.28 2.82 3.99 3.2 6.03 .44 2.33 1.26 3.71 2.2 3.71 1.22 0 1.37 -.87 .82 -4.56 -.54 -3.6 -.25 -5.4 1.39 -8.53 1.14 -2.18 2.07 -5.1 2.07 -6.48 0 -1.38 .95 -3.8 2.11 -5.37 2.09 -2.83 2.1 -2.91 .49 -7.71 -.9 -2.67 -2.08 -5.53 -2.63 -6.35 -.93 -1.38 -1.11 -1.36 -2.38 .3 -.76 .99 -1.17 2.57 -.93 3.51 .27 1.02 -.79 2.9 -2.61 4.64 -2.9 2.78 -3.12 2.84 -4.4 1.09 -.99 -1.35 -2.04 -1.66 -4 -1.17 -2.02 .51 -2.66 .3 -2.66 -.89 0 -.82 2.57 -5.9 3.77 -7.48 .21 -.27 .82 .29 1.35 1.25 .54 .96 1.4 1.74 1.92 1.74 .52 0 .95 -1.3 .95 -2.88 0 -2.06 .58 -3.04 2.03 -3.41 1.64 -.43 2 -1.27 1.86 -4.37 -.09 -2.11 .46 -5.33 1.22 -7.17 1.29 -3.09 1.26 -3.42 -.36 -4.61 -.96 -.7 -1.75 -1.57 -1.75 -1.92 0 -.35 .91 -.64 2.02 -.64 3.22 0 4.38 3.85 3.19 10.65 -.56 3.22 -.81 6.06 -.56 6.32 .25 .26 .88 -.19 1.4 -1 1.48 -2.31 2.94 -9.83 2.94 -15.16 0 -3.68 .46 -6.97 1.01 -7.31 .62 -.39 1 1.66 1 5.44 0 5.78 .11 6.06 2.48 6.06 1.48 0 3.93 1.4 6.06 3.48 2.87 2.79 3.52 4.11 3.27 6.65 -.38 3.82 -3.34 6.2 -4.83 3.87 -.53 -.83 -1.15 -1.95 -1.4 -2.5 -.7 -1.6 -2.56 2.37 -2.58 5.5 -.01 1.92 -.5 5.24 -1.09 7.37 -1.28 4.62 -.38 8.04 2.51 9.59 2.07 1.11 2.53 2.18 2.78 6.43 .29 4.95 .38 5.1 3.1 4.78 1.54 -.18 3.95 .42 5.34 1.33 1.53 1 3.39 1.41 4.69 1.02 1.19 -.35 3.7 -2.45 5.59 -4.66 2.79 -3.27 3.17 -4.19 2 -4.92 -.97 -.61 -1.82 -.39 -2.62 .68 -1.08 1.45 -1.38 1.45 -3.47 -.02 -1.26 -.88 -2.61 -1.6 -3 -1.6 -.39 0 -.86 1.43 -1.03 3.17 -.29 2.91 -2.81 5.24 -2.81 2.6 0 -.77 -.9 -2.36 -2 -3.54 -1.39 -1.49 -2 -3.53 -2 -6.67 0 -3.99 -.29 -4.6 -2.5 -5.15 -2.63 -.66 -3.17 -3.61 -1.01 -5.41 1.27 -1.05 1.86 -1 3.93 .35 1.98 1.29 2.51 1.36 2.87 .37 .35 -.97 .89 -.96 2.56 .03 1.16 .69 2.35 1.25 2.63 1.25 .28 0 .51 -1.17 .51 -2.61 0 -2.09 .35 -2.46 1.75 -1.89 3.7 1.52 4.66 .92 5.42 -3.41 .43 -2.42 1.69 -5.38 2.8 -6.56 1.11 -1.19 2.03 -2.69 2.03 -3.34 0 -.65 -.85 -1.19 -1.89 -1.19 -2.79 0 -4.99 -6.31 -4.39 -12.54 .39 -3.97 .12 -5.34 -1.24 -6.47 -1.55 -1.29 -2.05 -1.05 -4.86 2.29 -2.22 2.64 -3.93 3.72 -5.88 3.72 -1.51 -0 -2.75 .44 -2.75 .98 0 .54 1.13 1.72 2.51 2.62 1.64 1.08 3.55 1.44 5.5 1.05 2.96 -.59 2.99 -.55 2.99 3.82 0 4.17 -1.89 7.37 -2.77 4.71 -.22 -.65 -1.31 -1.18 -2.42 -1.18 -1.12 0 -3.74 -.96 -5.82 -2.13 -4.92 -2.77 -7.44 -8.12 -6.73 -14.34 .52 -4.61 -.57 -6.6 -2.53 -4.64 -.61 .61 -1.92 1.11 -2.91 1.11 -1.43 0 -1.8 -.81 -1.8 -4 0 -3.29 -.34 -4 -1.94 -4 -1.07 0 -2.24 .49 -2.62 1.09 -.37 .6 -.67 3.3 -.67 6 0 3.34 -.41 4.91 -1.29 4.91 -.71 0 -2.45 -1.97 -3.86 -4.39 -1.59 -2.72 -3.53 -4.63 -5.1 -5.02 -2.89 -.72 -3.38 -3.6 -.62 -3.6 1.75 0 1.88 -.7 1.58 -8.75 -.35 -9.57 -2.48 -16.25 -5.17 -16.25 -.91 0 -2.5 -.76 -3.53 -1.69 -1.77 -1.6 -1.9 -1.58 -2.45 .5 -.32 1.21 -.87 2.19 -1.23 2.19 -.36 0 -1.45 -.92 -2.41 -2.04 -1.72 -2.01 -1.79 -2.02 -4.63 -.34 -2.7 1.59 -2.99 1.6 -4.55 .04 -1.09 -1.09 -2.5 -1.45 -4.08 -1.06 -2.96 .74 -4.38 -1.86 -2.59 -4.74 1.11 -1.78 .61 -1.88 -10.59 -2.08 -31.18 -.55 -53.53 -.1 -59.73 1.05 -5.41 1.01 -8.66 .95 -15.3 .07 -5.16 -.69 -12.09 -.86 -17.73 -.43 -8.5 .64 -9.35 .89 -10.36 3.11 -.61 1.33 -1.56 2.42 -2.12 2.42 -.56 0 -1.02 -.87 -1.02 -1.94 0 -1.07 -.52 -2.27 -1.17 -2.66 -.64 -.4 -18.53 -.82 -39.75 -.94 -21.22 -.12 -38.81 -.36 -39.08 -.53 -.73 -.46 -305.54 -.25 -316 .22z m540.77 20.67 c.22 .65 -.32 1.19 -1.19 1.19 -.87 0 -1.58 -.71 -1.58 -1.58 0 -1.49 2.25 -1.17 2.77 .4z m-13.02 35.44 c-.23 .69 -1.02 1.25 -1.75 1.25 -.73 0 -1.52 -.56 -1.75 -1.25 -.25 -.74 .46 -1.25 1.75 -1.25 1.29 0 2 .51 1.75 1.25z m51.06 15.61 c1.12 .71 1.05 1.37 -.44 4.48 -.96 2.01 -2.11 3.66 -2.56 3.66 -.74 0 -.86 -4.23 -.18 -6.75 .33 -1.24 .89 -2.24 1.24 -2.23 .35 .01 1.22 .39 1.94 .84z m-68.81 12.64 c0 .83 -.45 1.5 -1 1.5 -.55 0 -1 -.67 -1 -1.5 0 -.83 .45 -1.5 1 -1.5 .55 0 1 .67 1 1.5z m27 0 c0 .83 -.45 1.5 -1 1.5 -.55 0 -1 -.67 -1 -1.5 0 -.83 .45 -1.5 1 -1.5 .55 0 1 .67 1 1.5z m-58 24.08 c0 .87 -.53 1.41 -1.19 1.19 -1.57 -.52 -1.89 -2.77 -.4 -2.77 .87 0 1.58 .71 1.58 1.58z m-36 7.92 c0 .83 -.45 1.5 -1 1.5 -.55 0 -1 -.67 -1 -1.5 0 -.83 .45 -1.5 1 -1.5 .55 0 1 .67 1 1.5z m23.13 21.77 c-1.53 1.53 -2.48 -.14 -1.06 -1.86 1.11 -1.34 1.43 -1.42 1.76 -.44 .22 .66 -.09 1.69 -.7 2.29z m-22.16 -.31 c.81 .51 1.21 1.19 .89 1.51 -.57 .57 -3.86 -.77 -3.86 -1.58 0 -.49 .34 -.89 .75 -.88 .41 .01 1.41 .43 2.22 .95z m38.03 19.54 c0 .83 -.45 1.5 -1 1.5 -.55 0 -1 -.67 -1 -1.5 0 -.83 .45 -1.5 1 -1.5 .55 0 1 .67 1 1.5z m-17 7.5 c0 1.1 -.45 2 -1 2 -.55 0 -1 -.9 -1 -2 0 -1.1 .45 -2 1 -2 .55 0 1 .9 1 2z m-32 16 c0 1.65 -.45 3 -1 3 -.55 0 -1 -1.35 -1 -3 0 -1.65 .45 -3 1 -3 .55 0 1 1.35 1 3z m52 1 c0 1.1 -.45 2 -1 2 -.55 0 -1 -.9 -1 -2 0 -1.1 .45 -2 1 -2 .55 0 1 .9 1 2z M1212.85 615 c-.08 1.65 -.19 3.53 -.25 4.17 -.05 .64 .46 1.35 1.15 1.58 .88 .29 1.25 -.94 1.25 -4.17 0 -2.41 -.48 -3.97 -.99 -4.34 -.51 -.37 -1.05 .43 -1.16 2.76z M1207.1 617.25 c.15 3.29 1.51 7.19 2.16 6.15 .75 -1.21 -.44 -8.4 -1.39 -8.4 -.48 0 -.82 1.01 -.77 2.25z M1159.75 839.74 c-3.21 .2 -5.75 .84 -5.75 1.43 0 1.37 10.74 .48 12.24 -1.01 .7 -.7 .78 -1.09 .21 -.98 -.52 .1 -3.54 .35 -6.7 .55z M881.09 917.44 c-.46 .58 -1.17 2.18 -1.57 3.56 -.4 1.38 -1.55 4.3 -2.55 6.5 -4.17 9.16 -21.1 49.23 -25.35 60 -4.13 10.45 -10 25.03 -13.06 32.4 -3.06 7.37 -5.56 14.28 -5.56 15.35 0 1.07 -.84 3.14 -1.86 4.6 -1.02 1.46 -2.44 4.45 -3.14 6.65 -.7 2.2 -2.64 6.9 -4.31 10.45 -1.66 3.55 -3.02 7.15 -3.01 8 .01 .85 -.33 1.78 -.75 2.06 -.42 .28 -1.92 3.57 -3.33 7.32 l-2.56 6.81 2.73 2.42 c1.5 1.33 3.38 2.31 4.16 2.18 .79 -.13 2.62 -2.26 4.07 -4.73 1.45 -2.47 3.42 -4.65 4.38 -4.84 1.05 -.2 3.03 1.14 4.96 3.37 l3.2 3.7 4.95 -1.68 c2.72 -.93 5.53 -2.16 6.23 -2.74 .7 -.58 1.27 -1.9 1.27 -2.94 0 -1.03 .46 -1.88 1.02 -1.88 .56 0 1.46 1.14 1.98 2.53 .99 2.59 4.2 4.34 4.79 2.59 .23 -.68 1.47 -1.65 2.76 -2.13 1.68 -.64 2.52 -1.96 2.99 -4.69 .36 -2.09 1.52 -5.03 2.58 -6.55 l1.94 -2.75 -2.78 -.18 c-1.53 -.1 -3.9 -.1 -5.28 -.01 -1.38 .1 -3.08 -.04 -3.78 -.3 -1.07 -.39 -1.03 -.87 .23 -2.78 .83 -1.27 3.82 -9.04 6.63 -17.27 2.82 -8.23 5.46 -15.41 5.87 -15.96 .57 -.76 7.71 -18.67 9.56 -24 .96 -2.75 2.36 -6.42 3.12 -8.15 .76 -1.73 1.38 -3.65 1.38 -4.26 0 -.61 .41 -1.89 .92 -2.85 1.08 -2.05 4.61 -10.53 7.58 -18.24 2.02 -5.23 4.07 -10.51 4.56 -11.75 .49 -1.24 1.28 -2.25 1.76 -2.25 .47 0 1.43 1.91 2.11 4.25 1.82 6.16 8.01 22.52 8.83 23.36 .7 .7 1.21 1.64 1.13 2.08 -.87 5.12 3.12 5.9 5.4 1.05 .84 -1.79 2.05 -5.24 2.7 -7.68 .65 -2.44 2.3 -5.9 3.66 -7.69 2.54 -3.33 2.86 -8.39 .59 -9.14 -.82 -.27 -1.25 .67 -1.25 2.76 0 4.39 -2.78 2.95 -4.41 -2.27 -.45 -1.47 -.87 -1.57 -2.44 -.59 -2.51 1.56 -5.16 .35 -5.14 -2.35 .02 -2.68 1.69 -5.08 2.98 -4.29 .67 .41 3.44 .93 6.15 1.14 4.22 .33 5.29 .02 7.44 -2.12 2.13 -2.13 2.41 -3.08 1.83 -6.26 -.37 -2.06 -1.56 -6 -2.65 -8.75 -1.08 -2.75 -3.45 -8.83 -5.27 -13.5 l-3.3 -8.5 -6.82 -.3 c-3.75 -.17 -7.76 .2 -8.9 .81 -1.46 .78 -4.5 .85 -10.31 .24 -5.71 -.6 -8.5 -.54 -9.08 .19z m-42.1 142.81 c-.01 1.15 -1.95 4.12 -2.39 3.68 -.55 -.55 .8 -4.93 1.52 -4.93 .49 0 .88 .56 .87 1.25z m8 14 c-.01 1.15 -1.95 4.12 -2.39 3.68 -.55 -.55 .8 -4.93 1.52 -4.93 .49 0 .88 .56 .87 1.25z M764.96 955.11 c-35.6 36.25 -91.77 92.98 -186.04 187.89 -51.08 51.42 -94.41 95.53 -96.3 98 -2.18 2.86 -6.68 10.19 -8.35 13.61 -.51 1.04 -1.73 3.46 -2.71 5.39 -2.68 5.25 -5.52 14.51 -4.98 16.23 .33 1.03 .15 2.41 -.38 3.07 -.53 .66 -1.29 4.02 -1.68 7.46 -.65 5.71 -.56 6.2 1.04 5.58 1.59 -.61 1.7 -.09 1.19 5.49 -.34 3.69 -.18 6.4 .38 6.75 .87 .54 10.2 -5.18 12.38 -7.59 .99 -1.09 2.63 -1.99 3.64 -1.99 1.47 0 1.85 .77 1.85 3.8 0 3.18 1.56 6.2 3.2 6.2 .44 0 .8 -1.28 .8 -2.85 0 -2.56 2.82 -6.15 4.83 -6.15 2.09 0 1.4 7.49 -.88 9.55 -1.79 1.62 -6.49 2.26 -9.95 1.35 -1.17 -.31 -1.43 .4 -1.19 3.21 .26 3.02 -.2 4.04 -2.88 6.29 -1.75 1.48 -2.92 2.94 -2.6 3.27 .32 .32 3.11 -1.09 6.19 -3.14 3.09 -2.05 5.82 -3.52 6.07 -3.26 1.12 1.12 -3.86 7.06 -7.46 8.92 -2.4 1.23 -4.61 2.89 -4.92 3.69 -.32 .84 .67 2.49 2.36 3.95 2.73 2.35 2.94 2.39 3.27 .59 .19 -1.05 1.32 -2.98 2.5 -4.29 1.18 -1.3 3.79 -3.42 5.8 -4.7 2.01 -1.28 4.93 -4.14 6.5 -6.36 2.95 -4.16 5.3 -4.77 11.67 -3 2.78 .77 4.18 .76 5.16 -.05 1.01 -.84 2.29 -.62 5.18 .87 2.11 1.09 5.53 2.74 7.59 3.66 2.06 .92 3.75 1.98 3.75 2.36 0 .38 -.55 1.24 -1.23 1.92 -.97 .97 -.61 1.72 1.72 3.58 2.55 2.03 2.77 2.57 1.61 3.97 -.74 .89 -1.96 1.62 -2.72 1.62 -.76 0 -1.38 .26 -1.38 .58 0 .32 1.58 2.5 3.5 4.85 1.92 2.35 3.5 4.94 3.5 5.77 0 1.32 -2.78 2.71 -15.81 7.89 -3.67 1.46 -1.63 3.23 2.89 2.51 3.1 -.49 12.77 -5.16 15.12 -7.29 .99 -.89 1.8 -1.99 1.8 -2.43 0 -.44 -.84 -1.61 -1.86 -2.6 -2.85 -2.74 -3.49 -11.18 -1.09 -14.31 1.05 -1.36 1.93 -2.93 1.97 -3.48 .08 -1.32 6.37 -7.69 8.82 -8.94 1.84 -.94 3.57 -1.48 3.85 -1.2 .9 .9 -1.37 7.28 -3.35 9.42 -1.72 1.85 -2.09 2.81 -1.21 3.11 .7 .23 1.75 -.36 2.32 -1.33 .58 -.97 2.28 -3.35 3.8 -5.29 1.51 -1.94 2.75 -4.3 2.75 -5.24 0 -.94 .9 -2.52 2 -3.52 1.1 -1 2 -2.62 2 -3.62 0 -2.85 4.18 -6 7.11 -5.36 2.45 .54 2.7 .3 3.09 -3.05 .33 -2.81 -.05 -4.01 -1.67 -5.3 -2.52 -2.02 -5.52 -6.85 -5.52 -8.91 0 -1.26 .55 -3.16 1.21 -4.23 1.55 -2.48 .05 -4.1 -1.65 -1.78 -.7 .96 -1.79 1.75 -2.41 1.75 -.62 0 -1.69 -.9 -2.38 -2 -.69 -1.1 -1.76 -2 -2.39 -2 -1.39 0 -3.7 -3.02 -2.89 -3.77 .43 -.4 .98 -.16 1.23 .52 .25 .69 .86 1.25 1.36 1.25 1.74 0 .5 -4.98 -2.1 -8.41 -2.87 -3.79 -4.47 -9.51 -3.51 -12.53 .56 -1.76 5.39 -5.53 6.13 -4.78 .3 .3 -.22 1.72 -1.16 3.16 -1.8 2.74 -1.46 10.73 .48 11.38 .59 .2 1.06 1.06 1.06 1.91 0 1.62 5.83 7.27 7.49 7.27 1.09 0 1.51 -1.09 1.51 -3.88 0 -4.84 1.95 -6.8 4.92 -4.94 1.14 .71 2.08 1.64 2.08 2.06 0 .42 1.16 .76 2.58 .76 1.62 0 2.43 .47 2.17 1.25 -.23 .69 -1.86 1.25 -3.62 1.25 -3.63 0 -5.5 2.08 -4 4.45 .54 .85 2.43 4.02 4.2 7.03 3.69 6.28 7.68 9.1 10.07 7.11 1.43 -1.19 1.37 -1.59 -.65 -4.19 -1.23 -1.58 -3.25 -4.18 -4.49 -5.79 -1.24 -1.61 -2.25 -3.37 -2.25 -3.92 0 -1.57 7.73 -5.33 11.82 -5.74 3.59 -.36 5.12 -1.14 7.29 -3.7 2.43 -2.87 2.98 -3.1 4.8 -1.99 1.14 .69 2.3 1.25 2.58 1.25 .28 0 .51 -1.16 .51 -2.58 0 -3.59 2.42 -2.31 3 1.59 .45 3.03 1.04 3.54 6.15 5.38 5.72 2.05 7.25 1.85 12.05 -1.59 3.08 -2.21 3.35 .35 .3 2.82 -1.65 1.34 -4 2.69 -5.22 3.01 -2.1 .55 -12.01 -1.61 -15.71 -3.42 -2.75 -1.35 -3.01 -1.32 -4.25 .38 -.73 .99 -1.32 2.31 -1.32 2.92 0 .61 .53 1.63 1.17 2.28 .78 .78 3.14 .96 7.1 .55 5.45 -.57 5.91 -.47 5.57 1.27 -.24 1.27 -1.51 2.08 -3.85 2.47 -1.92 .32 -4.5 1.13 -5.74 1.8 -1.24 .67 -2.25 1.82 -2.25 2.56 0 .74 .66 1.89 1.47 2.56 1.21 1 1.72 .98 2.85 -.16 .76 -.76 3.3 -2.25 5.64 -3.3 4.14 -1.87 4.3 -1.87 5.6 -.1 .95 1.29 2.06 1.64 3.82 1.2 1.36 -.34 3.19 -1.33 4.05 -2.19 .86 -.86 1.57 -2.41 1.57 -3.44 0 -2.7 4.01 -4.99 8.76 -4.99 2.85 0 5.31 -.73 7.24 -2.16 2.46 -1.82 3.17 -1.95 4.5 -.84 2.02 1.68 4.09 -.01 3.12 -2.54 -.47 -1.21 -1.33 -1.5 -3.15 -1.04 -2.63 .66 -6.27 -1 -10.06 -4.58 -2.7 -2.55 -3.43 -2.79 -5.82 -1.88 -1.5 .57 -3.75 .78 -4.99 .47 -1.34 -.34 -4.6 .47 -8.04 1.99 -3.18 1.41 -6.18 2.31 -6.67 2.01 -1.37 -.85 -.47 -3.98 1.62 -5.62 3.38 -2.66 2.19 -4.17 -2.76 -3.51 -3.5 .47 -8.75 -.97 -8.75 -2.4 0 -.6 14.95 -1.88 22.5 -1.93 2.2 -.01 5.04 -.26 6.32 -.54 1.99 -.44 2.23 -.94 1.67 -3.48 -.51 -2.31 -.3 -2.96 .93 -2.96 3.05 0 1.16 -5.65 -2.54 -7.56 -1.67 -.86 -2.88 -2.3 -2.88 -3.43 0 -1.07 -.9 -2.42 -2 -3.01 -1.1 -.59 -2 -1.47 -2 -1.96 0 -.49 1.47 -1.37 3.27 -1.97 1.8 -.59 5.45 -2.88 8.11 -5.08 2.66 -2.2 5.24 -4 5.73 -4 .49 0 .89 .42 .89 .94 0 .52 -1.8 3.02 -4 5.56 -2.2 2.54 -4 5.54 -4 6.66 0 1.12 .83 3.23 1.85 4.69 3.15 4.5 3.41 12.59 .64 19.4 -.51 1.26 -.23 1.75 .99 1.75 .94 0 1.92 -.86 2.2 -1.91 .32 -1.21 1.73 -2.14 3.87 -2.54 1.86 -.35 3.66 -1.1 4.01 -1.66 .35 -.57 -.31 -1.28 -1.46 -1.58 -1.16 -.3 -2.1 -.71 -2.1 -.9 0 -1.5 4.57 -8.39 5.37 -8.11 .63 .21 1.13 2.54 1.13 5.25 l0 4.87 5.7 1.14 c6.61 1.33 8.26 .53 6.57 -3.17 -.59 -1.3 -2.13 -3.05 -3.42 -3.9 -1.29 -.85 -2.35 -2.2 -2.35 -3.01 0 -2.11 2.97 -1.45 4.6 1.03 .91 1.38 2.67 2.77 3.93 3.09 2.88 .72 6.47 -1.26 6.47 -3.58 0 -1.05 1.04 -3.12 2.31 -4.59 2.08 -2.42 2.52 -2.55 4.48 -1.33 2.98 1.86 4.92 .09 3.27 -2.99 -1.39 -2.59 -4.89 -2.48 -9 .28 -1.95 1.32 -5.28 2.69 -7.39 3.06 -3.35 .58 -3.79 .44 -3.49 -1.14 .26 -1.35 1.43 -1.89 4.64 -2.12 3.59 -.26 4.61 -.83 6.24 -3.5 1.07 -1.75 1.95 -4.09 1.96 -5.19 .01 -1.1 .7 -3.97 1.54 -6.38 .84 -2.41 1.28 -4.62 .98 -4.92 -.3 -.3 -1.7 .54 -3.1 1.86 -1.41 1.32 -3.22 3.76 -4.03 5.42 -.81 1.66 -2.6 4.31 -3.99 5.88 -2.52 2.86 -2.53 2.87 -8.59 1.68 -4.39 -.86 -6.37 -.9 -7.15 -.12 -2.3 2.3 -8.79 -.3 -7.2 -2.88 .35 -.57 1.32 -1.04 2.13 -1.04 .82 0 2.61 -1.21 3.98 -2.69 2.43 -2.62 2.57 -2.65 5.31 -1.03 1.55 .92 3.11 1.38 3.46 1.02 .35 -.35 .64 -1.2 .64 -1.89 0 -.69 -1.58 -2.74 -3.5 -4.55 -1.92 -1.82 -3.5 -3.55 -3.5 -3.85 0 -.3 2.49 -.49 5.52 -.41 3.66 .09 6.16 .72 7.42 1.85 1.87 1.69 6.21 1.64 6.77 -.08 .2 -.62 -.76 -1.42 -2.15 -1.76 -3.57 -.9 -9.56 -6.67 -9.56 -9.21 0 -1.32 .38 -2.4 .84 -2.4 .46 0 1.32 1.05 1.9 2.33 .58 1.28 3.58 3.6 6.65 5.16 5.24 2.65 5.71 2.73 7.43 1.17 1.01 -.91 2.42 -1.66 3.13 -1.66 1.23 0 1.02 5.83 -.55 15.37 -.7 4.24 .94 6.44 3.32 4.46 .71 -.59 1.28 -1.91 1.28 -2.94 0 -1.03 .61 -1.88 1.37 -1.88 1.78 0 6.63 4.3 6.63 5.88 0 1.33 3.76 6.12 4.79 6.1 1.5 -.03 3.35 -1.95 2.78 -2.87 -.38 -.61 -1.74 -1.11 -3.02 -1.11 -1.68 0 -2.52 -.73 -2.99 -2.62 -.86 -3.44 1.88 -6.59 5.39 -6.18 2.25 .26 2.51 .7 2.23 3.64 -.27 2.78 -.02 3.28 1.5 2.97 1.45 -.29 1.76 -1.13 1.5 -4.09 -.31 -3.56 -.19 -3.72 2.71 -3.72 2.02 0 3.4 -.67 4.11 -2 .89 -1.67 .76 -2 -.81 -2 -1.03 0 -2.69 -.9 -3.69 -2 -1 -1.1 -2.12 -2 -2.49 -2 -.38 0 -1.2 1.12 -1.82 2.5 -1.28 2.8 -4.18 3.25 -4.18 .63 0 -1.03 1.01 -3.15 2.25 -4.73 1.24 -1.57 2.25 -4.22 2.25 -5.88 0 -4.12 2.88 -4.14 3.33 -.02 .18 1.65 .72 3.41 1.21 3.91 .61 .63 1.35 .52 2.42 -.37 .85 -.7 1.54 -1.86 1.54 -2.56 0 -.71 -1.58 -3.17 -3.5 -5.47 -1.92 -2.3 -3.5 -4.75 -3.5 -5.44 0 -.69 1.77 -2.05 3.94 -3.03 2.17 -.98 4.19 -2.43 4.5 -3.22 .54 -1.4 -1.28 -5.3 -2.47 -5.3 -.53 0 -.96 -.46 -.96 -1.02 0 -.69 .77 -.83 2.39 -.42 3.03 .76 4.27 -1.17 2.21 -3.45 -.88 -.97 -1.6 -2.31 -1.6 -2.97 0 -.66 .64 -1.45 1.42 -1.75 1.82 -.7 5.68 1.73 6.6 4.17 .64 1.68 1.7 2.44 3.41 2.44 2.09 0 2.65 -.67 3.54 -4.25 .58 -2.34 2.21 -8.3 3.62 -13.25 2.1 -7.36 39.02 -118.96 42.68 -129 4.25 -11.65 20.71 -59.57 23.7 -69 11.19 -35.23 11.26 -35.5 9.56 -38.09 -.87 -1.33 -1.93 -2.41 -2.35 -2.41 -.42 0 -16.72 16.25 -36.23 36.11z m-38.96 125.89 c0 .55 -.67 1 -1.5 1 -.83 0 -1.5 -.45 -1.5 -1 0 -.55 .67 -1 1.5 -1 .83 0 1.5 .45 1.5 1z m-67 77 c0 .55 -.9 1 -2 1 -1.1 0 -2 -.45 -2 -1 0 -.55 .9 -1 2 -1 1.1 0 2 .45 2 1z m-40 23 c0 .55 -.9 1 -2 1 -1.1 0 -2 -.45 -2 -1 0 -.55 .9 -1 2 -1 1.1 0 2 .45 2 1z m4 8 c0 .55 -.9 1 -2 1 -1.1 0 -2 -.45 -2 -1 0 -.55 .9 -1 2 -1 1.1 0 2 .45 2 1z m-56.61 8.58 c.33 .87 .61 1.77 .61 2 0 .56 -3.11 .05 -3.5 -.58 -.55 -.89 .47 -3 1.45 -3 .46 0 1.11 .71 1.44 1.58z m-29.39 9.42 c0 .55 -1.12 1 -2.5 1 -1.38 0 -2.5 -.45 -2.5 -1 0 -.55 1.12 -1 2.5 -1 1.38 0 2.5 .45 2.5 1z m154 5.78 c0 .7 -.66 1.54 -1.47 1.85 -1.26 .48 -7.53 -1.84 -7.53 -2.8 0 -.37 2.02 -.6 4.5 -.51 2.9 .11 4.5 .63 4.5 1.46z m-167 13.11 c0 .5 -2.72 2.11 -3.58 2.11 -.23 0 -.42 -.67 -.42 -1.5 0 -.83 .89 -1.5 2 -1.5 1.1 0 2 .4 2 .89z m103.39 11.69 c.96 2.51 .4 3.72 -.92 1.98 -.81 -1.07 -1.47 -2.31 -1.47 -2.75 0 -.44 .4 -.81 .89 -.81 .49 0 1.17 .71 1.5 1.58z m-18.64 .67 c-.23 .69 -1.02 1.25 -1.75 1.25 -.73 0 -1.52 -.56 -1.75 -1.25 -.25 -.74 .46 -1.25 1.75 -1.25 1.29 0 2 .51 1.75 1.25z m-91.75 18.25 c0 .83 -.45 1.5 -1 1.5 -.55 0 -1 -.67 -1 -1.5 0 -.83 .45 -1.5 1 -1.5 .55 0 1 .67 1 1.5z m0 4.5 c0 1.1 -.45 2 -1 2 -.55 0 -1 -.9 -1 -2 0 -1.1 .45 -2 1 -2 .55 0 1 .9 1 2z m17 8.03 c0 .57 -.69 1.3 -1.54 1.62 -.85 .33 -1.79 .34 -2.1 .04 -.31 -.31 -.26 -1.04 .1 -1.62 .36 -.59 1.31 -1.07 2.1 -1.07 .79 0 1.44 .46 1.44 1.03z" data-index="1" style="visibility: visible; fill: rgb(229, 177, 112);"></path><path fill="#aa6e37" fill-rule="evenodd" stroke="#aa6e37" stroke-linejoin="round" stroke-width=".8" d="M1030 902.72 c-.83 .31 -3.71 2.16 -6.4 4.12 -8.48 6.16 -12.49 18.7 -9.49 29.67 1.03 3.77 8.02 14.54 14.99 23.09 3.18 3.9 10.62 11.89 16.55 17.75 5.92 5.86 11.2 10.66 11.72 10.66 .52 0 2.79 -1.43 5.04 -3.18 2.96 -2.3 27.98 -29.59 31.92 -34.82 1.87 -2.48 4.58 -6.85 6.04 -9.72 4.94 -9.75 2.92 -23.22 -4.67 -31.09 -6.5 -6.74 -16.91 -8.93 -24.21 -5.09 -2.19 1.15 -6.15 4.19 -8.8 6.75 l-4.81 4.65 -2.45 -3 c-6.48 -7.93 -11.12 -10.53 -18.57 -10.42 -2.94 .04 -6.02 .33 -6.85 .64z m15.5 8.2 c1.65 .93 4.95 4.48 7.32 7.89 2.38 3.41 4.74 6.2 5.24 6.2 .5 0 2 -1.69 3.32 -3.75 1.32 -2.06 4.16 -5.43 6.3 -7.49 3.36 -3.23 4.71 -3.82 9.86 -4.32 7.32 -.71 11.94 1.47 15.15 7.12 4.54 8 3.7 19.2 -2.12 28.02 -4.71 7.13 -30.25 34.43 -32.21 34.43 -1.21 0 -26.69 -26 -30.73 -31.35 -5.65 -7.48 -7.82 -13.65 -7.45 -21.15 .43 -8.77 2.97 -12.76 10.24 -16.06 5.21 -2.37 10.33 -2.2 15.09 .48z M1057.32 1072.25 c-.44 .69 -1.81 3.71 -3.04 6.72 -2.63 6.41 -1.68 8.69 2.11 5.12 1.33 -1.25 3.25 -2.12 4.25 -1.93 2.97 .57 2.68 3.61 -.52 5.26 -1.65 .85 -3.3 2.52 -3.68 3.71 -.38 1.19 -1.87 3.26 -3.32 4.6 l-2.63 2.44 2.25 1.82 c1.23 1 2.25 2.56 2.25 3.47 0 .91 -1.12 3.13 -2.5 4.93 -1.38 1.8 -2.5 4.02 -2.5 4.93 0 1.12 .85 1.66 2.64 1.66 2.19 0 5.25 2.44 5.33 4.25 .02 .41 -.84 .75 -1.9 .75 -1.51 0 -8.98 4.34 -9.03 5.25 -.02 .41 .8 .75 1.84 .75 1.03 0 2.32 .56 2.87 1.25 .54 .69 1.28 3.56 1.64 6.38 l.65 5.13 -3.27 .65 c-6.16 1.22 -7.21 1.09 -7.53 -.92 -.8 -4.98 -1.61 -7.02 -2.22 -6.36 -.61 .66 -1.02 4.02 -1.02 9.86 l0 10 16.98 0 16.98 0 -.09 -37.99 -.09 -37.99 -2.39 .6 c-1.96 .49 -2.39 .22 -2.39 -1.54 0 -2.15 -1.06 -2.71 -6.69 -3.5 -2.82 -.39 -4.45 -.18 -4.99 .67z M1040 1123 c0 2.75 .42 5 .94 5 .52 0 1.23 -.47 1.58 -1.04 .75 -1.22 -.64 -8.96 -1.61 -8.96 -.5 0 -.91 2.25 -.91 5z M1648.68 1181.38 c-.37 .95 -18.42 16.23 -24.37 20.62 -8.33 6.15 -33.76 20.54 -43.31 24.51 -12.97 5.39 -35.51 11.87 -48.5 13.94 -5.5 .88 -11.26 1.8 -12.8 2.06 -1.54 .26 -87.33 .49 -190.65 .51 -163.99 .04 -188.01 .23 -189.07 1.51 -.83 1.01 -3.19 1.47 -7.47 1.47 -4.32 0 -6.64 .46 -7.49 1.49 -1.12 1.35 -1.07 1.55 .47 2.14 .94 .36 5.27 .38 9.64 .04 12.54 -.97 17.31 1.12 13.01 5.69 -1.17 1.24 -2.13 2.97 -2.13 3.84 0 1.16 -7.07 12.13 -8.36 12.98 -.57 .38 -2.22 .45 -3.66 .16 -2.04 -.41 -3 .05 -4.3 2.03 -.92 1.41 -1.67 3.4 -1.67 4.42 0 1.03 .3 2.17 .67 2.54 .37 .37 1.46 -.05 2.44 -.93 2.51 -2.27 4.19 -.8 3.47 3.04 -.77 4.12 1.76 6.78 5.2 5.47 3.34 -1.27 3.63 -3.88 .76 -6.88 -3.34 -3.49 -2.8 -7.03 1.08 -7.03 1.71 0 3.01 -.93 4.18 -2.99 3.32 -5.84 7.72 -2.69 6.98 5 -.49 5.05 .19 6.29 4.58 8.49 2.2 1.1 6.77 10.16 7.38 14.66 .42 3.1 .14 3.84 -1.87 4.87 -1.3 .67 -3.36 2.12 -4.57 3.23 -5.64 5.13 -7.71 -4.44 -2.3 -10.6 1.65 -1.88 3 -3.94 3 -4.58 0 -.64 -1.1 -2.27 -2.45 -3.62 -3.48 -3.48 -7.33 -3.16 -12.84 1.05 -2.52 1.92 -5.01 3.5 -5.52 3.5 -.52 0 -1.49 -.67 -2.17 -1.49 -.68 -.82 -1.63 -1.24 -2.12 -.94 -.49 .3 -.89 1.36 -.89 2.35 0 .99 1.09 3.4 2.42 5.36 1.91 2.81 2.3 4.4 1.88 7.57 -.41 3.02 -.01 4.86 1.58 7.45 1.17 1.89 2.12 4.11 2.12 4.93 0 .82 -.95 2.7 -2.1 4.17 -1.61 2.04 -1.95 3.47 -1.47 6.06 .56 2.96 .19 3.81 -2.89 6.81 -1.94 1.88 -3.81 4.84 -4.16 6.58 -.37 1.85 -1.25 3.15 -2.12 3.15 -1.08 0 -1.35 -.74 -.98 -2.69 .28 -1.48 .29 -3.28 .01 -4 -.28 -.72 -1.81 -1.31 -3.4 -1.31 -1.59 0 -2.89 -.45 -2.89 -1 0 -.55 -1.13 -1 -2.51 -1 -2.39 0 -2.48 -.21 -1.85 -4.16 .7 -4.35 .36 -4.51 -4.84 -2.37 -1.31 .54 -2.06 -.15 -3.24 -2.99 -.85 -2.03 -1.53 -5.11 -1.53 -6.84 .04 -8.32 -2.05 -11.74 -5.01 -8.17 -1.08 1.3 -.99 1.9 .5 3.55 1.67 1.84 1.7 2.27 .45 6.07 -1.07 3.24 -1.1 4.47 -.16 5.98 .65 1.05 1.19 2.1 1.19 2.35 0 .25 -1.24 .59 -2.75 .76 -3.85 .44 -3.52 3.08 .49 3.9 1.78 .36 3.92 1.23 4.75 1.91 .83 .69 1.51 2.01 1.51 2.94 0 .93 .66 2.56 1.47 3.63 1.68 2.22 1.87 7.44 .27 7.44 -.69 0 -1.71 -.95 -2.25 -2.1 -.54 -1.16 -2.2 -2.82 -3.69 -3.7 -2.6 -1.54 -2.78 -1.5 -4.82 1.1 -1.17 1.49 -2.59 2.7 -3.16 2.7 -.71 0 -.84 -.78 -.4 -2.52 .85 -3.39 -1.88 -4.46 -4.55 -1.79 -1.8 1.8 -1.87 2.53 -.89 8.69 .59 3.7 .81 7.15 .49 7.68 -.32 .52 -1.36 .95 -2.3 .95 -.95 0 -2.74 -.72 -3.99 -1.59 -2.36 -1.65 -5.18 -1.06 -5.18 1.09 0 .86 .56 1.74 1.25 1.95 .69 .21 2.49 .66 4 .99 2.98 .65 3.53 3.18 .88 4.02 -1.03 .33 -2.67 1.48 -3.65 2.57 -.98 1.09 -2.39 1.97 -3.13 1.97 -.75 0 -1.35 -1.05 -1.35 -2.39 0 -3.12 -3.19 -6.86 -5.19 -6.09 -.92 .35 -2.14 2 -2.72 3.65 -1.09 3.13 -3.32 3.1 -4.06 -.05 -.29 -1.23 -.98 -2.1 -1.53 -1.93 -2.51 .78 .78 12.31 3.51 12.31 .82 0 1.63 -1.01 1.81 -2.25 .18 -1.24 .92 -2.25 1.65 -2.25 1.25 0 3.53 5.54 3.53 8.58 0 2.89 4.35 6.41 7.04 5.7 1.17 -.31 2.85 .22 3.99 1.25 2.36 2.13 2.69 7.47 .47 7.47 -.83 0 -1.5 -.62 -1.5 -1.38 0 -.76 -.56 -1.84 -1.25 -2.41 -.69 -.57 -2.81 -1.18 -4.72 -1.37 -4.34 -.43 -5.65 2.53 -1.58 3.56 1.4 .35 2.55 1.28 2.55 2.06 0 .78 -1 2.12 -2.22 2.98 -1.22 .86 -2.98 1.56 -3.92 1.56 -.93 0 -3.47 2.03 -5.65 4.5 -2.18 2.47 -4.38 4.5 -4.9 4.5 -.51 0 -1.95 -1.37 -3.19 -3.05 -2.1 -2.84 -2.56 -3.01 -6.7 -2.39 -4.24 .64 -4.43 .56 -4.18 -1.7 .17 -1.55 -.26 -2.36 -1.24 -2.36 -1.12 0 -1.43 .95 -1.21 3.75 .28 3.58 .15 3.75 -2.75 3.75 -2.58 0 -3.04 -.38 -3.04 -2.5 0 -1.54 -.57 -2.5 -1.48 -2.5 -.81 0 -2.21 1.12 -3.12 2.5 -.9 1.38 -2.25 2.5 -2.99 2.5 -1.71 0 -3.36 -3.5 -2.75 -5.84 .86 -3.28 -2.23 -2.63 -3.64 .77 -.96 2.31 -.95 3.65 .03 6.37 .69 1.9 .96 4.19 .61 5.1 -1.77 4.62 -7.25 1.51 -6.16 -3.5 .46 -2.07 .15 -2.75 -1.41 -3.16 -1.1 -.29 -2.69 -2.18 -3.54 -4.22 -.85 -2.03 -2.05 -3.53 -2.66 -3.32 -.74 .25 -3.86 7.52 -3.89 9.05 -.01 .41 1.34 .75 3 .75 2.46 0 3.32 .64 4.68 3.49 .91 1.92 1.38 3.77 1.04 4.11 -.34 .34 -1.8 -.3 -3.24 -1.43 -1.44 -1.13 -3.23 -1.82 -3.98 -1.54 -.75 .29 -1.6 1.16 -1.9 1.94 -1 2.6 -3.57 1.29 -4.58 -2.33 -.58 -2.06 -2.39 -5.21 -4.02 -7 -1.64 -1.79 -3.48 -3.25 -4.1 -3.25 -.83 0 -.95 .68 -.46 2.63 .59 2.35 .42 2.57 -1.64 2.12 -1.27 -.28 -4.42 -1.33 -7.01 -2.33 -2.59 -1 -5.05 -1.48 -5.46 -1.07 -1.17 1.17 1.52 4.21 4.51 5.11 1.74 .53 3.17 1.52 3.17 2.2 0 .69 -2.02 2.14 -4.5 3.24 -5.16 2.28 -5.88 4.97 -2 7.51 2.78 1.82 3.38 6.61 1.07 8.53 -1.94 1.61 -7.57 -1.23 -7.57 -3.81 0 -1 -.9 -2.63 -2 -3.63 -1.1 -1 -2 -2.42 -2 -3.15 -0 -.74 -.42 -1.35 -.94 -1.35 -.52 0 -1.16 .35 -1.42 .77 -.26 .43 .61 3.01 1.93 5.75 1.33 2.74 2.41 5.27 2.42 5.63 .01 .65 -6.8 2.85 -8.81 2.85 -1.39 0 -3.34 -.74 -4.35 -1.65 -1.7 -1.54 -1.96 -1.54 -3.66 0 -1.01 .91 -2.13 1.65 -2.5 1.65 -.37 0 -.67 -1.1 -.67 -2.44 0 -1.34 -.49 -2.74 -1.08 -3.11 -.59 -.37 -2.31 .51 -3.8 1.94 -1.5 1.44 -3.5 2.61 -4.45 2.61 -2.52 0 -3.11 -3.11 -1.46 -7.7 .86 -2.38 1.21 -4.55 .78 -4.81 -.69 -.43 -6.98 9 -6.98 10.46 0 .91 -.99 1.09 -3.49 .62 -2.17 -.41 -5.21 -.07 -8.03 .89 -5.34 1.81 -14.35 1.85 -19.35 .09 -3.93 -1.39 -4.23 -1.35 -6.18 .75 l-2.06 2.21 -1.9 -2.5 c-1.65 -2.17 -2.16 -2.34 -3.93 -1.25 -1.12 .69 -2.79 1.25 -3.72 1.25 -.93 0 -2.5 -.73 -3.49 -1.63 -1.44 -1.3 -2.36 -1.42 -4.58 -.58 -4.7 1.78 -8.4 2.21 -10.29 1.21 -1.08 -.58 -2.69 -2.44 -3.56 -4.14 -2.17 -4.2 -4.17 -2.42 -2.53 2.27 .98 2.82 .93 3.49 -.39 4.81 -1.27 1.27 -1.83 1.35 -3.25 .46 -1.4 -.89 -1.71 -2.68 -1.73 -9.98 -.01 -5.17 -.45 -8.29 -.99 -8.96 -.54 -.67 -1.16 1.12 -1.55 5.79 -.65 7.87 -2.72 11.84 -6.98 13.37 -1.92 .69 -5.37 1.29 -7.67 1.33 -3.39 .06 -4.52 -.41 -6.08 -2.55 -1.7 -2.34 -2.17 -2.49 -4.22 -1.39 -3.48 1.86 -12.09 .48 -14.24 -2.28 l-1.71 -2.2 -1.15 3.28 c-1.62 4.61 -5.2 6.19 -12.55 5.52 -4.48 -.41 -6.83 -.12 -9.21 1.11 -2.37 1.23 -3.69 1.39 -5.12 .62 -1.06 -.57 -5.28 -1.03 -9.38 -1.03 -4.1 0 -10.92 -.71 -15.14 -1.59 -7.02 -1.45 -7.83 -1.45 -9.44 0 -1.34 1.22 -3.98 1.59 -11.23 1.59 -9.01 0 -9.72 .16 -14.42 3.25 l-4.95 3.25 293 .32 c303.19 .33 311.82 .23 337 -3.91 25.07 -4.12 44.09 -9.9 70.25 -21.36 7.29 -3.19 17.32 -8.22 22.29 -11.18 4.98 -2.95 9.29 -5.37 9.6 -5.37 .3 0 7.78 -4.79 16.62 -10.64 23.09 -15.28 52.05 -39.62 74.8 -62.83 9.45 -9.65 29.8 -31.81 32.17 -35.03 .64 -.88 12.41 -15.18 13.26 -16.13 .56 -.62 1.69 -2.14 2.52 -3.37 .83 -1.23 1.98 -2.75 2.57 -3.37 .59 -.62 1.93 -2.48 2.99 -4.13 1.06 -1.65 6.2 -9.17 11.43 -16.71 5.23 -7.54 10.67 -15.64 12.09 -18 10.56 -17.55 28.98 -53.79 27.35 -53.79 -.67 0 -1.45 .62 -1.74 1.38z M704.25 1443.12 c-5.85 1.69 -3.04 2.88 6.81 2.88 5.86 0 9.82 -.38 9.49 -.92 -.39 -.63 -10.22 -3.11 -11.85 -2.99 -.66 .05 -2.66 .51 -4.45 1.03z" data-index="2" style="visibility: visible; fill: rgb(229, 177, 112); stroke: rgb(229, 177, 112);"></path><path fill="#b28b54" fill-rule="evenodd" d="M893.25 917.08 c2.17 .51 5.33 .51 7.5 0 3.25 -.77 2.76 -.88 -3.75 -.88 -6.51 0 -7 .12 -3.75 .88z" data-index="3"></path><path fill="#bb9b74" fill-rule="evenodd" d="M887.28 1062.74 c2.63 .21 6.68 .2 9 -.01 2.32 -.21 .17 -.38 -4.78 -.38 -4.95 0 -6.85 .17 -4.22 .38z" data-index="4"></path><path fill="#725130" fill-rule="evenodd" d="M788.48 1143.19 c-.95 2.92 -2.12 5.74 -2.6 6.26 -.48 .52 -.88 1.31 -.88 1.75 0 .44 2.14 .73 4.75 .65 3.05 -.1 3.75 -.3 1.94 -.57 -1.54 -.23 -3.05 -1.06 -3.35 -1.83 -.3 -.78 .18 -3.52 1.06 -6.1 .88 -2.58 1.42 -4.87 1.2 -5.08 -.22 -.22 -1.17 2 -2.12 4.92z" data-index="5"></path><path fill="#ad7f4e" fill-rule="evenodd" d="M516.08 1206.11 c-2.86 2.81 -4.91 5.39 -4.58 5.73 .34 .34 3.07 -1.96 6.08 -5.11 3 -3.15 5.06 -5.73 4.58 -5.73 -.49 0 -3.22 2.3 -6.08 5.11z" data-index="6"></path><path fill="#a48c74" fill-rule="evenodd" d="M1535.1 1340.59 c-4.07 4.1 -7.19 7.65 -6.95 7.9 .25 .25 4.02 -3.14 8.37 -7.52 4.36 -4.38 7.48 -7.94 6.95 -7.9 -.54 .04 -4.31 3.42 -8.37 7.52z" data-index="7"></path><path fill="#915d2b" fill-rule="evenodd" d="M466.37 1379.5 c1.09 4.2 3.91 13.5 4.08 13.5 .17 0 .07 -2.13 -.23 -4.73 -.29 -2.6 -1.4 -6.09 -2.45 -7.75 -1.2 -1.88 -1.73 -2.26 -1.4 -1.02z" data-index="8"></path><path fill="#916e50" fill-rule="evenodd" d="M1298.25 1445.74 c4.26 .19 11.24 .19 15.5 0 4.26 -.19 .78 -.34 -7.75 -.34 -8.53 0 -12.01 .15 -7.75 .34z" data-index="9"></path></svg>